<svg xmlns="http://www.w3.org/2000/svg" viewBox="0 0 700 230" width="700" height="230" preserveAspectRatio="xMidYMid meet"><rect width="700" height="230" fill="#fff"/><line x1="70.0" y1="74.0" x2="109.8" y2="97.0" stroke="#1c1712" stroke-width="5" stroke-linecap="round"/><line x1="109.8" y1="97.0" x2="109.8" y2="143.0" stroke="#1c1712" stroke-width="5" stroke-linecap="round"/><line x1="109.8" y1="143.0" x2="70.0" y2="166.0" stroke="#1c1712" stroke-width="5" stroke-linecap="round"/><line x1="70.0" y1="166.0" x2="30.2" y2="143.0" stroke="#1c1712" stroke-width="5" stroke-linecap="round"/><line x1="30.2" y1="143.0" x2="30.2" y2="97.0" stroke="#1c1712" stroke-width="5" stroke-linecap="round"/><line x1="30.2" y1="97.0" x2="70.0" y2="74.0" stroke="#1c1712" stroke-width="5" stroke-linecap="round"/><circle cx="70" cy="120" r="25.76" fill="none" stroke="#1c1712" stroke-width="4"/><text x="70" y="200" font-size="16" font-family="Helvetica,Arial,sans-serif" text-anchor="middle" fill="#6c6358">Benzol</text><line x1="250.0" y1="74.0" x2="289.8" y2="97.0" stroke="#1c1712" stroke-width="5" stroke-linecap="round"/><line x1="289.8" y1="97.0" x2="289.8" y2="143.0" stroke="#1c1712" stroke-width="5" stroke-linecap="round"/><line x1="289.8" y1="143.0" x2="250.0" y2="166.0" stroke="#1c1712" stroke-width="5" stroke-linecap="round"/><line x1="250.0" y1="166.0" x2="210.2" y2="143.0" stroke="#1c1712" stroke-width="5" stroke-linecap="round"/><line x1="210.2" y1="143.0" x2="210.2" y2="97.0" stroke="#1c1712" stroke-width="5" stroke-linecap="round"/><line x1="210.2" y1="97.0" x2="250.0" y2="74.0" stroke="#1c1712" stroke-width="5" stroke-linecap="round"/><circle cx="250" cy="120" r="25.76" fill="none" stroke="#1c1712" stroke-width="4"/><line x1="329.7" y1="74.0" x2="369.5" y2="97.0" stroke="#1c1712" stroke-width="5" stroke-linecap="round"/><line x1="369.5" y1="97.0" x2="369.5" y2="143.0" stroke="#1c1712" stroke-width="5" stroke-linecap="round"/><line x1="369.5" y1="143.0" x2="329.7" y2="166.0" stroke="#1c1712" stroke-width="5" stroke-linecap="round"/><line x1="329.7" y1="166.0" x2="289.8" y2="143.0" stroke="#1c1712" stroke-width="5" stroke-linecap="round"/><line x1="289.8" y1="143.0" x2="289.8" y2="97.0" stroke="#1c1712" stroke-width="5" stroke-linecap="round"/><line x1="289.8" y1="97.0" x2="329.7" y2="74.0" stroke="#1c1712" stroke-width="5" stroke-linecap="round"/><circle cx="329.6743371481683" cy="120" r="25.76" fill="none" stroke="#1c1712" stroke-width="4"/><text x="289.83716857408416" y="200" font-size="16" font-family="Helvetica,Arial,sans-serif" text-anchor="middle" fill="#6c6358">Naphthalin</text><line x1="470.0" y1="74.0" x2="509.8" y2="97.0" stroke="#1c1712" stroke-width="5" stroke-linecap="round"/><line x1="509.8" y1="97.0" x2="509.8" y2="143.0" stroke="#1c1712" stroke-width="5" stroke-linecap="round"/><line x1="509.8" y1="143.0" x2="470.0" y2="166.0" stroke="#1c1712" stroke-width="5" stroke-linecap="round"/><line x1="470.0" y1="166.0" x2="430.2" y2="143.0" stroke="#1c1712" stroke-width="5" stroke-linecap="round"/><line x1="430.2" y1="143.0" x2="430.2" y2="97.0" stroke="#1c1712" stroke-width="5" stroke-linecap="round"/><line x1="430.2" y1="97.0" x2="470.0" y2="74.0" stroke="#1c1712" stroke-width="5" stroke-linecap="round"/><circle cx="470" cy="120" r="25.76" fill="none" stroke="#1c1712" stroke-width="4"/><line x1="549.7" y1="74.0" x2="589.5" y2="97.0" stroke="#1c1712" stroke-width="5" stroke-linecap="round"/><line x1="589.5" y1="97.0" x2="589.5" y2="143.0" stroke="#1c1712" stroke-width="5" stroke-linecap="round"/><line x1="589.5" y1="143.0" x2="549.7" y2="166.0" stroke="#1c1712" stroke-width="5" stroke-linecap="round"/><line x1="549.7" y1="166.0" x2="509.8" y2="143.0" stroke="#1c1712" stroke-width="5" stroke-linecap="round"/><line x1="509.8" y1="143.0" x2="509.8" y2="97.0" stroke="#1c1712" stroke-width="5" stroke-linecap="round"/><line x1="509.8" y1="97.0" x2="549.7" y2="74.0" stroke="#1c1712" stroke-width="5" stroke-linecap="round"/><circle cx="549.6743371481683" cy="120" r="25.76" fill="none" stroke="#1c1712" stroke-width="4"/><line x1="629.3" y1="74.0" x2="669.2" y2="97.0" stroke="#1c1712" stroke-width="5" stroke-linecap="round"/><line x1="669.2" y1="97.0" x2="669.2" y2="143.0" stroke="#1c1712" stroke-width="5" stroke-linecap="round"/><line x1="669.2" y1="143.0" x2="629.3" y2="166.0" stroke="#1c1712" stroke-width="5" stroke-linecap="round"/><line x1="629.3" y1="166.0" x2="589.5" y2="143.0" stroke="#1c1712" stroke-width="5" stroke-linecap="round"/><line x1="589.5" y1="143.0" x2="589.5" y2="97.0" stroke="#1c1712" stroke-width="5" stroke-linecap="round"/><line x1="589.5" y1="97.0" x2="629.3" y2="74.0" stroke="#1c1712" stroke-width="5" stroke-linecap="round"/><circle cx="629.3486742963366" cy="120" r="25.76" fill="none" stroke="#1c1712" stroke-width="4"/><text x="549.6743371481683" y="200" font-size="16" font-family="Helvetica,Arial,sans-serif" text-anchor="middle" fill="#6c6358">Anthracen</text></svg>