<svg xmlns="http://www.w3.org/2000/svg" viewBox="0 0 720 300" width="720" height="300" preserveAspectRatio="xMidYMid meet"><rect width="720" height="300" fill="#ffffff"/>
<text x="360" y="34" font-size="22" font-family="Helvetica,Arial,sans-serif" text-anchor="middle" fill="#3a342c">Schlüssel-Schloss-Prinzip am Süßrezeptor</text><path d="M 360 90 C 470 90 500 150 500 200 C 500 250 450 270 360 270 L 360 200 Z"
         fill="#eef4ec" stroke="#1e5d52" stroke-width="4"/><circle cx="430" cy="150" r="9" fill="none" stroke="#1e5d52" stroke-width="3"/><circle cx="455" cy="200" r="9" fill="none" stroke="#1e5d52" stroke-width="3"/><circle cx="430" cy="250" r="9" fill="none" stroke="#1e5d52" stroke-width="3"/><text x="440" y="288" font-size="16" font-family="Helvetica,Arial,sans-serif" text-anchor="middle" fill="#1e5d52">Rezeptor (Geschmacksknospe)</text><path d="M 360 120 C 280 120 250 150 250 200 C 250 250 300 250 360 240
         C 410 235 410 165 360 160 Z" fill="#f7eede" stroke="#a83610" stroke-width="4"/><circle cx="340" cy="150" r="11.16" fill="#ffffff"/><text x="340" y="150" font-size="18" font-family="Helvetica,Arial,sans-serif" font-weight="600" text-anchor="middle" dominant-baseline="central" fill="#a83610">OH</text><circle cx="360" cy="200" r="11.16" fill="#ffffff"/><text x="360" y="200" font-size="18" font-family="Helvetica,Arial,sans-serif" font-weight="600" text-anchor="middle" dominant-baseline="central" fill="#a83610">OH</text><circle cx="340" cy="250" r="11.16" fill="#ffffff"/><text x="340" y="250" font-size="18" font-family="Helvetica,Arial,sans-serif" font-weight="600" text-anchor="middle" dominant-baseline="central" fill="#a83610">OH</text><line x1="360" y1="160" x2="422" y2="150" stroke="#1e5d52" stroke-width="4" stroke-linecap="round" stroke-dasharray="3 9"/><line x1="372" y1="200" x2="448" y2="200" stroke="#1e5d52" stroke-width="4" stroke-linecap="round" stroke-dasharray="3 9"/><line x1="360" y1="240" x2="422" y2="250" stroke="#1e5d52" stroke-width="4" stroke-linecap="round" stroke-dasharray="3 9"/><text x="300" y="288" font-size="16" font-family="Helvetica,Arial,sans-serif" text-anchor="middle" fill="#a83610">Molekül (Zucker)</text><line x1="510" y1="180" x2="600" y2="180" stroke="#1c1712" stroke-width="4"/><path d="M 600 180 L 586 172 L 586 188 Z" fill="#1c1712"/><text x="630" y="168" font-size="18" font-family="Helvetica,Arial,sans-serif" text-anchor="start" fill="#1c1712">Signal</text><text x="630" y="192" font-size="18" font-family="Helvetica,Arial,sans-serif" text-anchor="start" fill="#1c1712">„süß“</text>
</svg>