<svg xmlns="http://www.w3.org/2000/svg" viewBox="0 0 720 240" width="720" height="240" preserveAspectRatio="xMidYMid meet"><rect width="720" height="240" fill="#ffffff"/>
<text x="360" y="34" font-size="22" font-family="Helvetica,Arial,sans-serif" text-anchor="middle" fill="#3a342c">Dipol–Dipol–Wechselwirkung</text><rect x="70" y="100" width="200" height="74" rx="14" fill="#f5f1e8" stroke="#cdc6b5" stroke-width="2"/><text x="104" y="137" font-size="22" font-family="Helvetica,Arial,sans-serif" font-weight="700" text-anchor="middle" dominant-baseline="central" fill="#b3341a">δ+</text><text x="236" y="137" font-size="22" font-family="Helvetica,Arial,sans-serif" font-weight="700" text-anchor="middle" dominant-baseline="central" fill="#1f5fb0">δ−</text><line x1="132" y1="137" x2="208" y2="137" stroke="#a83610" stroke-width="3"/><path d="M 208 137 L 196 130 L 196 144 Z" fill="#a83610"/><line x1="132" y1="128" x2="132" y2="146" stroke="#a83610" stroke-width="3"/><rect x="450" y="100" width="200" height="74" rx="14" fill="#f5f1e8" stroke="#cdc6b5" stroke-width="2"/><text x="484" y="137" font-size="22" font-family="Helvetica,Arial,sans-serif" font-weight="700" text-anchor="middle" dominant-baseline="central" fill="#b3341a">δ+</text><text x="616" y="137" font-size="22" font-family="Helvetica,Arial,sans-serif" font-weight="700" text-anchor="middle" dominant-baseline="central" fill="#1f5fb0">δ−</text><line x1="512" y1="137" x2="588" y2="137" stroke="#a83610" stroke-width="3"/><path d="M 588 137 L 576 130 L 576 144 Z" fill="#a83610"/><line x1="512" y1="128" x2="512" y2="146" stroke="#a83610" stroke-width="3"/><line x1="270" y1="137" x2="450" y2="137" stroke="#1e5d52" stroke-width="4" stroke-linecap="round" stroke-dasharray="3 9"/><text x="360" y="122" font-size="17" font-family="Helvetica,Arial,sans-serif" text-anchor="middle" fill="#1e5d52">Anziehung</text><text x="360" y="210" font-size="16" font-family="Helvetica,Arial,sans-serif" text-anchor="middle" fill="#8a8275">δ+ eines Moleküls zieht δ− des Nachbarmoleküls an</text>
</svg>